<svg class="marks" width="483" height="252" viewBox="0 0 483 252" version="1.1" xmlns="http://www.w3.org/2000/svg" xmlns:xlink="http://www.w3.org/1999/xlink"><defs><clipPath id="clip1"><rect x="0" y="0" width="400" height="189"></rect></clipPath></defs><g transform="translate(77,23)"><g class="mark-group role-frame root"><g transform="translate(0,0)"><path class="background" d="M0.5,0.5h400v189h-400Z" style="fill: none; stroke: #ddd;"></path><g><g class="mark-group role-axis"><g transform="translate(0.5,189.5)"><path class="background" d="M0,0h0v0h0Z" style="pointer-events: none; fill: none;"></path><g><g class="mark-rule role-axis-grid" style="pointer-events: none;"><line transform="translate(0,0)" x2="0" y2="-189" style="fill: none; stroke: #ddd; stroke-width: 1; opacity: 1;"></line><line transform="translate(44,0)" x2="0" y2="-189" style="fill: none; stroke: #ddd; stroke-width: 1; opacity: 1;"></line><line transform="translate(89,0)" x2="0" y2="-189" style="fill: none; stroke: #ddd; stroke-width: 1; opacity: 1;"></line><line transform="translate(133,0)" x2="0" y2="-189" style="fill: none; stroke: #ddd; stroke-width: 1; opacity: 1;"></line><line transform="translate(178,0)" x2="0" y2="-189" style="fill: none; stroke: #ddd; stroke-width: 1; opacity: 1;"></line><line transform="translate(222,0)" x2="0" y2="-189" style="fill: none; stroke: #ddd; stroke-width: 1; opacity: 1;"></line><line transform="translate(267,0)" x2="0" y2="-189" style="fill: none; stroke: #ddd; stroke-width: 1; opacity: 1;"></line><line transform="translate(311,0)" x2="0" y2="-189" style="fill: none; stroke: #ddd; stroke-width: 1; opacity: 1;"></line><line transform="translate(356,0)" x2="0" y2="-189" style="fill: none; stroke: #ddd; stroke-width: 1; opacity: 1;"></line><line transform="translate(400,0)" x2="0" y2="-189" style="fill: none; stroke: #ddd; stroke-width: 1; opacity: 1;"></line></g></g></g></g><g class="mark-rect role-mark marks" clip-path="url(#clip1)"><path d="M0,22.049999999999997h1.7777777777777777v18.900000000000002h-1.7777777777777777Z" style="fill: #4c78a8;"></path><path d="M0,169.05h0.8888888888888888v18.900000000000002h-0.8888888888888888Z" style="fill: #4c78a8;"></path><path d="M0,64.05h233.77777777777777v18.900000000000002h-233.77777777777777Z" style="fill: #4c78a8;"></path><path d="M0,43.05h213.33333333333334v18.900000000000002h-213.33333333333334Z" style="fill: #4c78a8;"></path><path d="M0,127.05h288v18.900000000000002h-288Z" style="fill: #4c78a8;"></path><path d="M0,1.0499999999999972h260.44444444444446v18.900000000000002h-260.44444444444446Z" style="fill: #4c78a8;"></path><path d="M0,148.05h365.3333333333333v18.900000000000002h-365.3333333333333Z" style="fill: #4c78a8;"></path><path d="M0,106.05h20.444444444444446v18.900000000000002h-20.444444444444446Z" style="fill: #4c78a8;"></path><path d="M0,85.05h0.8888888888888888v18.900000000000002h-0.8888888888888888Z" style="fill: #4c78a8;"></path></g><g class="mark-text role-title" style="pointer-events: none;"><text text-anchor="middle" transform="translate(164.93603515625,-7)" style="font: bold 13px sans-serif; fill: #000; opacity: 1;">Robo de autos segun Mes</text></g><g class="mark-group role-axis"><g transform="translate(0.5,189.5)"><path class="background" d="M0,0h0v0h0Z" style="pointer-events: none; fill: none;"></path><g><g class="mark-rule role-axis-tick" style="pointer-events: none;"><line transform="translate(0,0)" x2="0" y2="5" style="fill: none; stroke: #888; stroke-width: 1; opacity: 1;"></line><line transform="translate(44,0)" x2="0" y2="5" style="fill: none; stroke: #888; stroke-width: 1; opacity: 1;"></line><line transform="translate(89,0)" x2="0" y2="5" style="fill: none; stroke: #888; stroke-width: 1; opacity: 1;"></line><line transform="translate(133,0)" x2="0" y2="5" style="fill: none; stroke: #888; stroke-width: 1; opacity: 1;"></line><line transform="translate(178,0)" x2="0" y2="5" style="fill: none; stroke: #888; stroke-width: 1; opacity: 1;"></line><line transform="translate(222,0)" x2="0" y2="5" style="fill: none; stroke: #888; stroke-width: 1; opacity: 1;"></line><line transform="translate(267,0)" x2="0" y2="5" style="fill: none; stroke: #888; stroke-width: 1; opacity: 1;"></line><line transform="translate(311,0)" x2="0" y2="5" style="fill: none; stroke: #888; stroke-width: 1; opacity: 1;"></line><line transform="translate(356,0)" x2="0" y2="5" style="fill: none; stroke: #888; stroke-width: 1; opacity: 1;"></line><line transform="translate(400,0)" x2="0" y2="5" style="fill: none; stroke: #888; stroke-width: 1; opacity: 1;"></line></g><g class="mark-text role-axis-label" style="pointer-events: none;"><text text-anchor="start" transform="translate(0,15)" style="font: 10px sans-serif; fill: #000; opacity: 1;">0</text><text text-anchor="middle" transform="translate(44.44444444444444,15)" style="font: 10px sans-serif; fill: #000; opacity: 1;">50</text><text text-anchor="middle" transform="translate(88.88888888888889,15)" style="font: 10px sans-serif; fill: #000; opacity: 1;">100</text><text text-anchor="middle" transform="translate(133.33333333333331,15)" style="font: 10px sans-serif; fill: #000; opacity: 1;">150</text><text text-anchor="middle" transform="translate(177.77777777777777,15)" style="font: 10px sans-serif; fill: #000; opacity: 1;">200</text><text text-anchor="middle" transform="translate(222.22222222222223,15)" style="font: 10px sans-serif; fill: #000; opacity: 1;">250</text><text text-anchor="middle" transform="translate(266.66666666666663,15)" style="font: 10px sans-serif; fill: #000; opacity: 1;">300</text><text text-anchor="middle" transform="translate(311.11111111111114,15)" style="font: 10px sans-serif; fill: #000; opacity: 1;">350</text><text text-anchor="middle" transform="translate(355.55555555555554,15)" style="font: 10px sans-serif; fill: #000; opacity: 1;">400</text><text text-anchor="end" transform="translate(400,15)" style="font: 10px sans-serif; fill: #000; opacity: 1;">450</text></g><g class="mark-rule role-axis-domain" style="pointer-events: none;"><line transform="translate(0,0)" x2="400" y2="0" style="fill: none; stroke: #888; stroke-width: 1; opacity: 1;"></line></g><g class="mark-text role-axis-title" style="pointer-events: none;"><text text-anchor="middle" transform="translate(200,31)" style="font: bold 11px sans-serif; fill: #000; opacity: 1;">Number of Records</text></g></g></g></g><g class="mark-group role-axis"><g transform="translate(0.5,0.5)"><path class="background" d="M0,0h0v0h0Z" style="pointer-events: none; fill: none;"></path><g><g class="mark-rule role-axis-tick" style="pointer-events: none;"><line transform="translate(0,9)" x2="-5" y2="0" style="fill: none; stroke: #888; stroke-width: 1; opacity: 1;"></line><line transform="translate(0,31)" x2="-5" y2="0" style="fill: none; stroke: #888; stroke-width: 1; opacity: 1;"></line><line transform="translate(0,52)" x2="-5" y2="0" style="fill: none; stroke: #888; stroke-width: 1; opacity: 1;"></line><line transform="translate(0,73)" x2="-5" y2="0" style="fill: none; stroke: #888; stroke-width: 1; opacity: 1;"></line><line transform="translate(0,94)" x2="-5" y2="0" style="fill: none; stroke: #888; stroke-width: 1; opacity: 1;"></line><line transform="translate(0,115)" x2="-5" y2="0" style="fill: none; stroke: #888; stroke-width: 1; opacity: 1;"></line><line transform="translate(0,136)" x2="-5" y2="0" style="fill: none; stroke: #888; stroke-width: 1; opacity: 1;"></line><line transform="translate(0,157)" x2="-5" y2="0" style="fill: none; stroke: #888; stroke-width: 1; opacity: 1;"></line><line transform="translate(0,178)" x2="-5" y2="0" style="fill: none; stroke: #888; stroke-width: 1; opacity: 1;"></line></g><g class="mark-text role-axis-label" style="pointer-events: none;"><text text-anchor="end" transform="translate(-7,12.499999999999998)" style="font: 10px sans-serif; fill: #000; opacity: 1;">April</text><text text-anchor="end" transform="translate(-7,33.5)" style="font: 10px sans-serif; fill: #000; opacity: 1;">December</text><text text-anchor="end" transform="translate(-7,54.5)" style="font: 10px sans-serif; fill: #000; opacity: 1;">February</text><text text-anchor="end" transform="translate(-7,75.5)" style="font: 10px sans-serif; fill: #000; opacity: 1;">January</text><text text-anchor="end" transform="translate(-7,96.5)" style="font: 10px sans-serif; fill: #000; opacity: 1;">July</text><text text-anchor="end" transform="translate(-7,117.5)" style="font: 10px sans-serif; fill: #000; opacity: 1;">June</text><text text-anchor="end" transform="translate(-7,138.5)" style="font: 10px sans-serif; fill: #000; opacity: 1;">March</text><text text-anchor="end" transform="translate(-7,159.5)" style="font: 10px sans-serif; fill: #000; opacity: 1;">May</text><text text-anchor="end" transform="translate(-7,180.5)" style="font: 10px sans-serif; fill: #000; opacity: 1;">October</text></g><g class="mark-rule role-axis-domain" style="pointer-events: none;"><line transform="translate(0,0)" x2="0" y2="189" style="fill: none; stroke: #888; stroke-width: 1; opacity: 1;"></line></g><g class="mark-text role-axis-title" style="pointer-events: none;"><text text-anchor="middle" transform="translate(-58.1279296875,94.5) rotate(-90) translate(0,-2)" style="font: bold 11px sans-serif; fill: #000; opacity: 1;">month</text></g></g></g></g></g></g></g></g></svg>